<svg width="34" height="40" viewBox="0 0 34 40" fill="none" xmlns="http://www.w3.org/2000/svg">
<path d="M33.3261 19.5146C33.0693 10.5343 25.7088 3.33325 16.6663 3.33325C13.8027 3.33325 11.1077 4.05547 8.75365 5.32769L33.3261 19.5146Z" fill="#464646"/>
<path d="M6.41035 6.86153C5.72055 7.40076 5.0743 7.99314 4.47775 8.6325L32.609 24.8741C32.8618 24.046 33.0519 23.1906 33.1737 22.3134L6.41035 6.86153Z" fill="#464646"/>
<path d="M28.8552 31.3671C28.2587 32.0064 27.6124 32.5988 26.9226 33.1381L0.158997 17.6861C0.280836 16.8088 0.470954 15.9534 0.72381 15.1254L28.8552 31.3671Z" fill="#464646"/>
<path d="M30.4359 29.393L1.64498 12.7705C2.00886 12.0158 2.42792 11.2928 2.89695 10.6066L31.6879 27.229C31.324 27.9837 30.905 28.7068 30.4359 29.393Z" fill="#464646"/>
<path d="M16.6663 36.6666C19.5301 36.6666 22.2252 35.9443 24.5794 34.6719L0.0065918 20.4848C0.263172 29.4653 7.62378 36.6666 16.6663 36.6666Z" fill="#464646"/>
</svg>
