<svg width="928" height="472" viewBox="0 0 928 472" fill="none" xmlns="http://www.w3.org/2000/svg">
<path d="M67.5663 149.86C12.3871 175.82 -4.50444 240.72 30.4048 293.427C58.9328 337.48 126.875 343.38 164.411 305.62C190.312 279.66 199.696 245.833 189.936 211.613C174.546 155.76 116.364 126.653 67.5663 149.86ZM131.754 151.433C180.552 169.527 202.699 231.28 177.925 279.66C151.273 330.793 85.584 341.807 45.4196 301.687C27.7772 284.38 18.7684 261.96 18.7684 236C18.7684 208.467 28.528 186.047 48.0471 168.74C73.9476 145.927 101.349 140.42 131.754 151.433Z" fill="white"/>
<path d="M79.203 168.74C75.0739 171.493 74.6985 178.573 76.9507 202.173L79.5783 232.067H67.9419C60.0592 232.067 54.804 234.82 50.675 241.507C45.4198 250.16 45.4198 252.127 51.0503 265.107C54.804 272.973 60.0592 279.267 62.6867 279.267C65.3143 279.267 67.5665 281.627 67.5665 284.38C67.5665 295.393 82.2059 302.473 110.734 304.833L138.887 306.8V293.033C138.887 283.987 140.763 279.267 144.142 279.267C147.145 279.267 152.024 272.58 155.027 264.713C159.907 251.733 159.907 248.98 155.027 241.113C151.649 236 147.52 232.067 144.892 232.067C142.64 232.067 145.643 227.74 151.649 223.02C162.535 213.973 162.535 213.58 155.778 203.353C149.397 193.127 148.646 192.733 140.388 198.633C131.379 204.533 131.379 204.533 131.379 187.227C131.379 175.033 129.502 169.133 125.373 167.56C116.74 164.02 85.2089 164.807 79.203 168.74ZM123.872 188.8V204.927L102.476 203.747L80.7044 202.567L79.5783 187.62L78.4522 173.067H100.974H123.872V188.8ZM153.526 208.073C156.529 213.58 156.153 215.94 152.024 217.907C146.394 219.873 137.385 207.68 141.514 202.96C145.643 198.633 149.772 200.207 153.526 208.073ZM120.869 222.233C119.367 236 118.992 236 100.974 236H82.5813V222.233V208.467H102.476H122.37L120.869 222.233ZM136.259 226.953C132.881 229.707 128.752 232.067 126.875 232.067C122.37 232.067 123.496 218.3 128.376 213.187C132.13 209.253 134.007 209.647 138.136 215.153C142.265 221.053 141.889 223.02 136.259 226.953ZM89.3379 246.62C85.5842 247.407 79.5783 247.407 76.2 246.62C72.4463 245.44 75.4493 244.653 82.5813 244.653C89.7133 244.653 92.7162 245.44 89.3379 246.62ZM131.379 251.34C133.256 255.667 135.133 267.86 135.133 278.873C135.133 294.213 133.631 298.933 129.502 298.933C125.749 298.933 123.872 295 123.872 286.74C123.872 268.253 117.866 259.207 106.98 261.96C98.7221 263.927 97.596 263.14 97.596 254.093C97.596 244.653 99.0975 243.867 112.611 243.867C123.496 243.867 128.376 245.833 131.379 251.34ZM93.8423 259.6C93.8423 261.567 88.9625 263.533 82.5813 263.533C76.5754 263.533 71.3202 261.567 71.3202 259.6C71.3202 257.24 76.5754 255.667 82.5813 255.667C88.9625 255.667 93.8423 257.24 93.8423 259.6ZM112.611 271.4C112.611 273.367 103.227 275.333 91.9655 275.333C80.7044 275.333 71.3202 273.367 71.3202 271.4C71.3202 269.04 80.7044 267.467 91.9655 267.467C103.227 267.467 112.611 269.04 112.611 271.4ZM111.86 283.987C121.244 293.82 116.74 298.933 99.4729 298.933C78.0769 298.933 77.3261 291.853 98.7221 289.887C112.235 288.707 111.485 288.313 93.0916 287.92C81.0798 287.527 71.3202 285.167 71.3202 283.2C71.3202 277.693 106.605 278.48 111.86 283.987Z" fill="white"/>
<path d="M206.453 200.6C206.453 206.894 208.705 208.467 219.591 208.467H232.728V247.8C232.728 284.38 233.104 287.134 240.236 287.134C247.368 287.134 247.743 284.38 247.743 247.8V208.467H261.256C271.767 208.467 274.394 207.287 273.268 201.387C272.142 195.88 266.887 194.7 239.11 193.52C208.329 192.34 206.453 192.734 206.453 200.6Z" fill="white"/>
<path d="M283.028 198.24C281.902 201.78 281.526 219.48 281.902 237.967C283.778 278.873 290.535 289.1 316.811 289.1C344.963 289.1 349.092 281.627 349.092 233.247C349.092 195.487 348.717 192.733 341.585 192.733C334.453 192.733 334.078 195.487 334.078 229.313C334.078 267.86 331.45 275.333 317.562 275.333C301.045 275.333 298.418 269.827 297.667 231.28C296.916 201.78 295.79 194.307 290.91 193.52C287.907 192.733 284.154 195.093 283.028 198.24Z" fill="white"/>
<path d="M367.861 239.934V287.134H397.14C414.782 287.134 428.295 285.167 430.923 282.414C437.304 275.727 436.553 253.307 429.797 246.62C424.917 241.507 424.917 240.327 429.797 236C432.8 233.247 435.427 225.38 435.427 217.907C435.427 199.027 424.541 192.734 393.386 192.734H367.861V239.934ZM414.782 213.974C426.794 223.02 419.286 232.067 399.767 232.067C384.752 232.067 382.876 231.28 382.876 223.02C382.876 217.907 384.002 212.4 385.503 211.22C389.632 206.5 407.275 208.074 414.782 213.974ZM416.659 253.7C424.917 264.32 418.16 271.4 399.767 271.4C383.626 271.4 382.876 271.007 382.876 259.6C382.876 248.587 383.626 247.8 397.515 247.8C405.773 247.8 414.031 250.16 416.659 253.7Z" fill="white"/>
<path d="M459.076 202.173C449.316 211.22 448.565 213.58 448.565 241.507C448.565 277.693 454.947 286.74 481.598 289.887C496.988 291.853 499.991 290.673 510.501 280.053C520.636 269.433 521.762 265.5 521.762 244.26C521.762 231.28 519.885 216.333 517.633 211.22C509 191.16 476.718 186.44 459.076 202.173ZM500.742 217.12C511.252 232.46 506.372 268.647 493.61 273.76C481.973 278.48 469.961 271.793 465.457 257.633C460.953 243.473 463.205 222.233 469.961 213.187C476.343 205.32 494.36 207.68 500.742 217.12Z" fill="white"/>
<path d="M536.777 239.934C536.777 284.38 537.152 287.134 544.284 287.134C550.665 287.134 551.792 284.38 551.792 271.4V255.667H570.56C594.584 255.667 604.343 246.62 604.343 224.594C604.343 201.78 591.956 192.734 560.8 192.734H536.777V239.934ZM583.323 214.76C590.455 221.84 590.455 222.627 585.575 232.46C582.572 237.967 577.692 239.934 566.806 239.934C551.792 239.934 551.792 239.934 551.792 224.2C551.792 208.86 552.167 208.467 564.554 208.467C571.686 208.467 580.32 211.22 583.323 214.76Z" fill="white"/>
<path d="M616.355 231.674C617.856 279.66 622.361 287.134 650.138 287.134C663.651 287.134 668.156 285.56 668.156 281.234C668.156 277.3 664.402 275.334 655.768 275.334C635.123 275.334 630.619 266.287 630.619 226.954C630.619 194.7 630.243 192.734 622.736 192.734C615.229 192.734 614.853 194.307 616.355 231.674Z" fill="white"/>
<path d="M704.191 195.88C703.065 197.847 695.183 219.48 686.925 243.474L672.285 287.134H680.919C687.3 287.134 690.678 284.38 692.18 277.3C694.432 268.647 696.309 267.467 712.825 267.467C729.341 267.467 731.218 268.647 733.47 277.3C735.347 284.38 738.35 287.134 744.731 287.134C753.365 287.134 753.365 287.134 737.224 240.72C724.837 204.927 719.582 194.307 713.951 193.52C709.822 192.734 705.318 193.914 704.191 195.88ZM719.957 234.82C724.461 248.98 722.96 251.734 710.573 251.734C700.813 251.734 700.062 247.014 706.068 228.527C710.948 214.367 713.951 215.94 719.957 234.82Z" fill="white"/>
<path d="M773.259 195.487C763.499 199.027 758.244 209.254 758.244 224.2C758.244 243.08 763.875 247.8 784.52 247.8C804.414 247.8 816.802 255.274 813.423 265.107C811.546 269.827 805.916 271.4 786.397 271.4C764.625 271.4 761.998 272.187 761.998 279.267C761.998 286.347 764.625 287.134 792.027 287.134C825.435 287.134 829.564 283.987 829.564 258.814C829.564 241.114 823.934 236 803.288 236C781.892 236 769.505 227.74 775.511 217.514C778.514 212.007 785.271 210.04 802.913 209.254C822.808 208.074 825.81 206.894 825.81 200.6C825.81 193.52 823.183 192.734 802.538 193.127C789.4 193.127 776.262 194.307 773.259 195.487Z" fill="white"/>
<path d="M837.071 200.207C837.071 206.107 840.074 208.467 849.458 209.254L861.47 210.434L862.596 248.587C863.347 283.987 864.098 287.134 870.854 287.134C877.986 287.134 878.362 284.38 878.362 247.8V208.467H891.5C902.01 208.467 904.638 206.894 904.638 200.6C904.638 193.127 902.01 192.734 870.854 192.734C840.074 192.734 837.071 193.52 837.071 200.207Z" fill="white"/>
</svg>
